<svg xmlns="http://www.w3.org/2000/svg" width="574" height="598" fill="none" viewBox="0 0 574 598">
  <path fill="#000" fill-rule="evenodd" d="M64 118c-35.3 0-64 28.7-64 64v320c0 35.3 28.7 64 64 64h320c35.3 0 64-28.7 64-64V259.3c0-4.065-2.419-7.665-5.947-9.683l-16.092-9.206a7.525 7.525 0 0 0-9.9 2.215 7.523 7.523 0 0 1-8.2 2.929l-9.317-2.621a13.974 13.974 0 0 1-2.95-1.206l-32.763-17.997a14.371 14.371 0 0 1-2.48-1.721c-2.445-2.111-6.902-6.089-7.351-8.51l-1-15-.901-15.774c-.065-1.132-.637-2.272-.373-3.376.083-.35.189-.69.088-1.13-.114-.503-.309-1.005-.33-1.519-.154-3.786-1.406-6.45-3.233-8.247-1.591-1.565-28.072-13.97-28.743-16.099-.225-.711-.275-.761-.645-1.409-1.691-2.958-6.081-11.792-4.863-21.946 1.5-12.5-7-10.907-7.5-11-.5-.093-241.5 0-241.5 0Zm32 64c-17.7 0-32 14.3-32 32v64c0 17.7 14.3 32 32 32h192c17.7 0 32-14.3 32-32v-64c0-17.7-14.3-32-32-32H96Zm173.255 210.745a64.003 64.003 0 0 0-90.51 0 64 64 0 1 0 90.51 0Z" clip-rule="evenodd"/>
  <path fill="#000" d="M571.685 93.628a9.005 9.005 0 0 0-4.376-6.074l-22.495-12.82a22 22 0 0 1-11.107-19.036l-.09-25.088a8.992 8.992 0 0 0-3.183-6.84A125.878 125.878 0 0 0 489.127.518a9.003 9.003 0 0 0-7.267.664L458.749 14.1a22 22 0 0 1-21.475-.003L414.128 1.148a9.003 9.003 0 0 0-7.278-.675 125.88 125.88 0 0 0-41.263 23.342 8.997 8.997 0 0 0-3.183 6.829l-.112 25.135a22 22 0 0 1-11.107 19.016L328.679 87.62a8.997 8.997 0 0 0-4.376 6.075 119.776 119.776 0 0 0 0 46.752 8.998 8.998 0 0 0 4.376 6.074l22.495 12.82a22.004 22.004 0 0 1 11.107 19.035l.089 25.1a8.994 8.994 0 0 0 3.184 6.84 125.892 125.892 0 0 0 41.307 23.252 9.003 9.003 0 0 0 7.267-.664l23.138-12.959a22.002 22.002 0 0 1 21.492-.006l23.135 12.943a8.9 8.9 0 0 0 4.388 1.125 9.112 9.112 0 0 0 2.891-.473 126.092 126.092 0 0 0 41.262-23.32 9.006 9.006 0 0 0 3.183-6.828l.112-25.135a22.003 22.003 0 0 1 11.107-19.016l22.507-12.826a9.005 9.005 0 0 0 4.376-6.075 119.813 119.813 0 0 0-.034-46.707Zm-123.674 68.384a44.997 44.997 0 1 1-.001-89.993 44.997 44.997 0 0 1 .001 89.993Z"/>
</svg>
