<svg xmlns="http://www.w3.org/2000/svg" viewBox="0 0 256 256"><path fill="#3a65ab" stroke="#3a65ab" stroke-width="1" d="M128.00,173.00 C128.00,173.00 102.00,175.00 102.00,175.00 85.39,174.97 64.02,170.31 49.00,163.22 38.46,158.24 28.39,152.17 20.01,143.96 14.88,138.93 10.72,133.32 7.31,127.00 3.36,119.66 1.10,112.37 1.00,104.00 1.00,104.00 1.00,98.00 1.00,98.00 1.29,73.92 24.76,53.44 44.00,42.43 84.66,19.15 129.75,23.12 169.00,47.00 188.74,59.02 207.93,76.23 208.00,101.00 208.00,101.00 188.00,101.00 188.00,101.00 186.46,86.48 168.72,71.84 157.00,64.61 140.76,54.59 121.33,46.78 102.00,47.00 88.42,47.16 72.20,52.52 60.00,58.32 45.30,65.30 19.83,84.81 21.10,103.00 21.39,107.16 22.92,110.33 24.76,114.00 32.70,129.78 48.16,140.02 64.00,146.72 75.16,151.44 92.90,155.26 105.00,154.99 113.45,154.79 121.81,152.84 130.00,151.00 130.00,151.00 128.00,173.00 128.00,173.00 ZM136.00,79.00 C142.71,81.35 144.84,93.60 144.99,100.00 145.51,122.74 130.31,140.73 107.00,141.00 83.63,141.26 67.43,126.52 66.09,103.00 64.82,80.73 85.85,58.90 104.00,64.00 100.18,69.73 95.45,74.53 96.20,82.00 97.29,92.87 110.06,102.98 121.00,99.03 129.92,95.81 134.61,87.96 136.00,79.00 ZM186.00,113.46 C206.11,110.69 225.57,114.92 239.91,130.01 252.85,143.63 255.21,157.09 255.00,175.00 254.76,195.49 241.26,214.25 223.00,222.88 213.06,227.58 204.72,228.12 194.00,228.00 150.34,227.49 126.71,178.85 146.32,142.00 154.93,125.82 168.55,117.23 186.00,113.46 ZM233.00,181.00 C242.24,158.78 221.84,133.54 199.00,133.01 188.40,132.77 182.75,135.31 174.00,141.00 178.60,146.85 195.92,157.24 203.00,161.86 209.82,166.32 226.61,178.55 233.00,181.00 ZM221.00,200.00 C216.39,194.15 206.42,188.61 200.00,184.33 192.31,179.21 168.77,162.59 162.00,160.00 159.67,165.03 159.94,166.57 160.00,172.00 160.23,190.99 177.11,207.55 196.00,207.99 206.60,208.23 212.25,205.69 221.00,200.00 Z" /></svg>